<svg width="30" height="30" viewBox="0 0 30 30" fill="none" xmlns="http://www.w3.org/2000/svg">
<path d="M15.9072 15.1858L13.9057 18.0267L13.261 17.3994C12.795 16.9473 12.036 16.9396 11.563 17.3816C11.0895 17.8236 11.0812 18.5469 11.5449 18.9979L13.2223 20.6298C13.4492 20.8508 13.7592 20.9736 14.0803 20.9736C14.1167 20.9736 14.1535 20.9725 14.1905 20.9691C14.5504 20.9368 14.8757 20.7525 15.0773 20.4679L17.9011 16.4606C18.2703 15.936 18.1233 15.2261 17.5729 14.8745C17.0226 14.5206 16.277 14.6623 15.9072 15.1858Z" fill="#55CDF1"/>
<path d="M21.7054 5.29611V4.39301C21.7054 3.76127 21.1679 3.25 20.5051 3.25C19.8422 3.25 19.3047 3.76127 19.3047 4.39301V4.79181C16.5308 4.34055 13.6928 4.27837 10.9024 4.61613V4.39301C10.9024 3.76127 10.3649 3.25 9.7021 3.25C9.03928 3.25 8.50177 3.76127 8.50177 4.39301V5.01653C8.20433 5.07768 7.90508 5.13083 7.60968 5.20124C5.50622 5.7012 3.87389 7.2573 3.34875 9.25974C2.22164 13.5538 2.22164 18.0924 3.34875 22.3866C3.87389 24.3891 5.50622 25.9451 7.61028 26.4452C9.86498 26.9821 12.1841 27.25 14.5034 27.25C16.8227 27.25 19.1423 26.9821 21.3972 26.4452C23.5006 25.9451 25.1329 24.3891 25.6581 22.3866C26.7852 18.0925 26.7852 13.5539 25.6581 9.25974C25.1593 7.35811 23.6564 5.87059 21.7054 5.29611ZM8.19172 7.418C8.36865 7.37594 8.54822 7.34611 8.72599 7.30759C8.94181 7.6106 9.28858 7.82206 9.7021 7.82206C10.2696 7.82206 10.723 7.43949 10.8482 6.93519C12.0595 6.77243 13.2808 6.68133 14.5034 6.68133C16.145 6.68133 17.7858 6.83198 19.3999 7.12539C19.5825 7.53493 20.0085 7.82206 20.5051 7.82206C20.7787 7.82206 21.0188 7.71953 21.2207 7.57288C22.2559 7.95785 23.0549 8.76882 23.3288 9.81342C23.426 10.1832 23.5049 10.5567 23.5837 10.9303C17.5488 10.5022 11.4578 10.5022 5.42292 10.9303C5.50178 10.5568 5.58076 10.1833 5.67775 9.81342C5.98804 8.63131 6.95094 7.71382 8.19172 7.418ZM23.3288 21.8329C23.0188 23.015 22.0559 23.9325 20.8151 24.2283C16.6855 25.2106 12.3207 25.2106 8.19232 24.2283C6.95094 23.9325 5.98804 23.015 5.67799 21.8329C4.94195 19.0295 4.74101 16.1123 5.05466 13.2432C11.3312 12.7698 17.6759 12.7698 23.9524 13.2432C24.2659 16.1123 24.0649 19.0295 23.3288 21.8329Z" fill="#55CDF1"/>
</svg>
