<svg width="30" height="30" viewBox="0 0 30 30" fill="none" xmlns="http://www.w3.org/2000/svg">
<path d="M25.9875 14.175L21.8125 5.82501C21.5007 5.20045 21.0208 4.67532 20.4267 4.30873C19.8327 3.94214 19.1481 3.74864 18.45 3.75001H11.55C10.852 3.74864 10.1674 3.94214 9.57331 4.30873C8.97926 4.67532 8.49932 5.20045 8.18752 5.82501L4.01252 14.175C3.83839 14.5244 3.74849 14.9097 3.75002 15.3V22.5C3.75002 23.4946 4.14511 24.4484 4.84837 25.1517C5.55163 25.8549 6.50546 26.25 7.50002 26.25H22.5C23.4946 26.25 24.4484 25.8549 25.1517 25.1517C25.8549 24.4484 26.25 23.4946 26.25 22.5V15.3C26.2515 14.9097 26.1616 14.5244 25.9875 14.175ZM10.425 6.93751C10.5298 6.72946 10.6907 6.55485 10.8895 6.43337C11.0883 6.3119 11.3171 6.24839 11.55 6.25001H18.45C18.683 6.24839 18.9117 6.3119 19.1105 6.43337C19.3093 6.55485 19.4702 6.72946 19.575 6.93751L22.975 13.75H20C19.6685 13.75 19.3506 13.8817 19.1161 14.1161C18.8817 14.3505 18.75 14.6685 18.75 15V18.75H11.25V15C11.25 14.6685 11.1183 14.3505 10.8839 14.1161C10.6495 13.8817 10.3315 13.75 10 13.75H7.02502L10.425 6.93751ZM22.5 23.75H7.50002C7.1685 23.75 6.85056 23.6183 6.61614 23.3839C6.38172 23.1495 6.25002 22.8315 6.25002 22.5V16.25H8.75002V20C8.75002 20.3315 8.88172 20.6495 9.11614 20.8839C9.35056 21.1183 9.6685 21.25 10 21.25H20C20.3315 21.25 20.6495 21.1183 20.8839 20.8839C21.1183 20.6495 21.25 20.3315 21.25 20V16.25H23.75V22.5C23.75 22.8315 23.6183 23.1495 23.3839 23.3839C23.1495 23.6183 22.8315 23.75 22.5 23.75Z" fill="#55CDF1"/>
</svg>
