<svg width="30" height="30" viewBox="0 0 30 30" fill="none" xmlns="http://www.w3.org/2000/svg">
<path d="M25.6299 14.4836L22.2009 17.9121L20.9835 16.695L22.9553 14.7321H18.1631C17.481 14.7321 16.8269 14.4612 16.3446 13.979C15.8623 13.4968 15.5913 12.8427 15.5913 12.1607V4.44643C15.5913 4.2191 15.501 4.00108 15.3402 3.84034C15.1795 3.67959 14.9614 3.58929 14.734 3.58929H4.44681C4.21945 3.58929 4.0014 3.67959 3.84063 3.84034C3.67986 4.00108 3.58954 4.2191 3.58954 4.44643V23.3036C3.58954 23.5309 3.67986 23.7489 3.84063 23.9097C4.0014 24.0704 4.21945 24.1607 4.44681 24.1607H14.734C14.9614 24.1607 15.1795 24.0704 15.3402 23.9097C15.501 23.7489 15.5913 23.5309 15.5913 23.3036V17.3036H17.3059V23.3036C17.3059 23.9856 17.0349 24.6396 16.5526 25.1218C16.0703 25.6041 15.4161 25.875 14.734 25.875H4.44681C3.76472 25.875 3.11057 25.6041 2.62827 25.1218C2.14596 24.6396 1.875 23.9856 1.875 23.3036V4.44643C1.875 3.76444 2.14596 3.11039 2.62827 2.62815C3.11057 2.14592 3.76472 1.875 4.44681 1.875H14.734C15.4161 1.875 16.0703 2.14592 16.5526 2.62815C17.0349 3.11039 17.3059 3.76444 17.3059 4.44643V12.1607C17.3059 12.388 17.3962 12.6061 17.5569 12.7668C17.7177 12.9276 17.9358 13.0179 18.1631 13.0179H22.9638L21.0264 11.0636L22.2437 9.855L25.6299 13.2836C25.787 13.4438 25.875 13.6592 25.875 13.8836C25.875 14.1079 25.787 14.3233 25.6299 14.4836Z" fill="#55CDF1"/>
</svg>
