<svg width="30" height="30" viewBox="0 0 30 30" fill="none" xmlns="http://www.w3.org/2000/svg">
<path d="M15.9072 15.1858L13.9057 18.0266L13.261 17.3993C12.795 16.9473 12.036 16.9395 11.563 17.3815C11.0895 17.8235 11.0812 18.5468 11.5449 18.9978L13.2223 20.6297C13.4492 20.8508 13.7592 20.9735 14.0803 20.9735C14.1167 20.9735 14.1535 20.9724 14.1905 20.9691C14.5504 20.9367 14.8757 20.7525 15.0773 20.4679L17.9011 16.4606C18.2703 15.9359 18.1233 15.226 17.5729 14.8744C17.0226 14.5205 16.277 14.6623 15.9072 15.1858Z" fill="#171717"/>
<path d="M21.7054 5.29605V4.39295C21.7054 3.76121 21.1679 3.24994 20.5051 3.24994C19.8422 3.24994 19.3047 3.76121 19.3047 4.39295V4.79175C16.5308 4.34049 13.6928 4.27831 10.9024 4.61607V4.39295C10.9024 3.76121 10.3649 3.24994 9.7021 3.24994C9.03928 3.24994 8.50177 3.76121 8.50177 4.39295V5.01647C8.20433 5.07762 7.90508 5.13077 7.60968 5.20118C5.50622 5.70113 3.87389 7.25724 3.34875 9.25968C2.22164 13.5538 2.22164 18.0923 3.34875 22.3865C3.87389 24.3891 5.50622 25.9451 7.61028 26.4451C9.86498 26.982 12.1841 27.2499 14.5034 27.2499C16.8227 27.2499 19.1423 26.982 21.3972 26.4451C23.5006 25.9451 25.1329 24.3891 25.6581 22.3865C26.7852 18.0924 26.7852 13.5539 25.6581 9.25968C25.1593 7.35805 23.6564 5.87053 21.7054 5.29605ZM8.19172 7.41794C8.36865 7.37588 8.54822 7.34605 8.72599 7.30753C8.94181 7.61054 9.28858 7.822 9.7021 7.822C10.2696 7.822 10.723 7.43943 10.8482 6.93513C12.0595 6.77237 13.2808 6.68127 14.5034 6.68127C16.145 6.68127 17.7858 6.83192 19.3999 7.12533C19.5825 7.53487 20.0085 7.822 20.5051 7.822C20.7787 7.822 21.0188 7.71947 21.2207 7.57282C22.2559 7.95779 23.0549 8.76876 23.3288 9.81336C23.426 10.1831 23.5049 10.5567 23.5837 10.9302C17.5488 10.5021 11.4578 10.5021 5.42292 10.9302C5.50178 10.5568 5.58076 10.1832 5.67775 9.81336C5.98804 8.63125 6.95094 7.71376 8.19172 7.41794ZM23.3288 21.8328C23.0188 23.015 22.0559 23.9325 20.8151 24.2283C16.6855 25.2106 12.3207 25.2106 8.19232 24.2283C6.95094 23.9325 5.98804 23.015 5.67799 21.8328C4.94195 19.0295 4.74101 16.1123 5.05466 13.2431C11.3312 12.7698 17.6759 12.7698 23.9524 13.2431C24.2659 16.1123 24.0649 19.0295 23.3288 21.8328Z" fill="#171717"/>
</svg>
